# xmcd
#
# Track frame offsets:
#	150
#	29778
#	48826
#	52149
#	55448
#	65210
#	82122
#	92404
#	106093
#	119565
#	131078
#	150598
#	166400
#	179420
#	192980
#	199996
#	209264
#	236690
#	255854
#	273547
#
# Disc length: 3765 seconds
#
# Revision: 1
# Processed by: cddbd v1.5.2PL0 Copyright (c) Steve Scherf et al.
# Submitted via: EZCDAudioConverter 2.1.7.1
#
DISCID=2e0eb314
DTITLE=Billy Green - Stone
DYEAR=2009
DGENRE=
TTITLE0=Eco Blue - Toadstrip
TTITLE1=Race
TTITLE2=Head Off
TTITLE3=Pigs
TTITLE4=Cosmic Funeral
TTITLE5=Amanda
TTITLE6=Septic
TTITLE7=Smoke
TTITLE8=Stone
TTITLE9=Undertaker
TTITLE10=Gravediggers
TTITLE11=Swim
TTITLE12=Kalude Kool and The Kats
TTITLE13=Toad
TTITLE14=The Death Of Dr. Death
TTITLE15=Lachie Jamieson - Hips Rap
TTITLE16=Doug Parkinson - Cosmic Flash Song
TTITLE17=Doug Parkinson - Do Not Go Gentle (Rage)
TTITLE18=Jeannie Lewis - Do Not Go Gentle (Rage)
TTITLE19=Stone Is A Trip [Original Theatrical Trailer]
EXTD=
EXTT0=
EXTT1=
EXTT2=
EXTT3=
EXTT4=
EXTT5=
EXTT6=
EXTT7=
EXTT8=
EXTT9=
EXTT10=
EXTT11=
EXTT12=
EXTT13=
EXTT14=
EXTT15=
EXTT16=
EXTT17=
EXTT18=
EXTT19=
PLAYORDER=
